<svg width="24" height="23" viewBox="0 0 24 23" fill="none" xmlns="http://www.w3.org/2000/svg">
<path d="M22.0373 2.09646C20.7959 0.762155 19.0565 0.00295418 17.234 0.000139715C15.4101 0.00225056 13.6688 0.761049 12.4255 2.09561L12.0018 2.54336L11.578 2.09561C9.11101 -0.559586 4.95858 -0.71207 2.30343 1.75496C2.18578 1.86432 2.07215 1.9779 1.96278 2.09561C-0.654261 4.91841 -0.654261 9.28092 1.96278 12.1037L11.3791 22.0338C11.7048 22.3777 12.2477 22.3924 12.5916 22.0667C12.6029 22.056 12.6139 22.0451 12.6245 22.0338L22.0374 12.1037C24.6542 9.28122 24.6542 4.91896 22.0373 2.09646ZM20.7962 10.9226H20.7953L12.0018 20.1974L3.20738 10.9226C1.20811 8.76573 1.20811 5.43275 3.20738 3.27587C5.02296 1.30806 8.09007 1.18468 10.0579 3.00025C10.1534 3.08841 10.2453 3.18033 10.3335 3.27587L11.3791 4.37894C11.7236 4.7213 12.2799 4.7213 12.6245 4.37894L13.6701 3.27672C15.4857 1.30891 18.5528 1.18553 20.5206 3.00111C20.6161 3.08926 20.708 3.18118 20.7962 3.27672C22.8129 5.43702 22.8276 8.77608 20.7962 10.9226Z" fill="white"/>
</svg>
