<svg width="24" height="23" viewBox="0 0 24 23" fill="none" xmlns="http://www.w3.org/2000/svg">
<path d="M22.0373 2.09646C20.7959 0.762155 19.0565 0.00295422 17.234 0.000139762C15.4101 0.00225061 13.6688 0.761049 12.4255 2.09561L12.0018 2.54336L11.578 2.09561C9.11101 -0.559586 4.95858 -0.71207 2.30343 1.75496C2.18578 1.86432 2.07215 1.9779 1.96278 2.09561C-0.654261 4.91841 -0.654261 9.28092 1.96278 12.1037L11.3791 22.0338C11.7048 22.3777 12.2477 22.3924 12.5916 22.0667C12.6029 22.056 12.6139 22.0451 12.6245 22.0338L22.0374 12.1037C24.6542 9.28122 24.6542 4.91896 22.0373 2.09646Z" fill="white"/>
</svg>
